<?xml version="1.0" encoding="utf-8" standalone="no"?>
<!DOCTYPE svg PUBLIC "-//W3C//DTD SVG 1.1//EN"
  "http://www.w3.org/Graphics/SVG/1.1/DTD/svg11.dtd">
<svg xmlns:xlink="http://www.w3.org/1999/xlink" width="864pt" height="432pt" viewBox="0 0 864 432" xmlns="http://www.w3.org/2000/svg" version="1.1">
 <metadata>
  <rdf:RDF xmlns:dc="http://purl.org/dc/elements/1.1/" xmlns:cc="http://creativecommons.org/ns#" xmlns:rdf="http://www.w3.org/1999/02/22-rdf-syntax-ns#">
   <cc:Work>
    <dc:type rdf:resource="http://purl.org/dc/dcmitype/StillImage"/>
    <dc:date>2026-02-24T01:31:54.727672</dc:date>
    <dc:format>image/svg+xml</dc:format>
    <dc:creator>
     <cc:Agent>
      <dc:title>Matplotlib v3.10.8, https://matplotlib.org/</dc:title>
     </cc:Agent>
    </dc:creator>
   </cc:Work>
  </rdf:RDF>
 </metadata>
 <defs>
  <style type="text/css">*{stroke-linejoin: round; stroke-linecap: butt}</style>
 </defs>
 <g id="figure_1">
  <g id="patch_1">
   <path d="M 0 432 
L 864 432 
L 864 0 
L 0 0 
z
" style="fill: #ffffff"/>
  </g>
  <g id="axes_1">
   <g id="LineCollection_1">
    <path d="M 432 240.226682 
L 214.438017 240.226682 
" clip-path="url(#pf51ef66e57)" style="fill: none; stroke: #000000; stroke-width: 1.2"/>
    <path d="M 432 240.226682 
L 649.561983 240.226682 
" clip-path="url(#pf51ef66e57)" style="fill: none; stroke: #000000; stroke-width: 1.2"/>
    <path d="M 83.900826 385.586777 
L 214.438017 240.226682 
" clip-path="url(#pf51ef66e57)" style="fill: none; stroke: #000000; stroke-width: 1.2"/>
    <path d="M 83.900826 337.133412 
L 214.438017 240.226682 
" clip-path="url(#pf51ef66e57)" style="fill: none; stroke: #000000; stroke-width: 1.2"/>
    <path d="M 83.900826 288.680047 
L 214.438017 240.226682 
" clip-path="url(#pf51ef66e57)" style="fill: none; stroke: #000000; stroke-width: 1.2"/>
    <path d="M 83.900826 191.773318 
L 214.438017 240.226682 
" clip-path="url(#pf51ef66e57)" style="fill: none; stroke: #000000; stroke-width: 1.2"/>
    <path d="M 83.900826 143.319953 
L 214.438017 240.226682 
" clip-path="url(#pf51ef66e57)" style="fill: none; stroke: #000000; stroke-width: 1.2"/>
    <path d="M 83.900826 94.866588 
L 214.438017 240.226682 
" clip-path="url(#pf51ef66e57)" style="fill: none; stroke: #000000; stroke-width: 1.2"/>
    <path d="M 780.099174 288.680047 
L 649.561983 240.226682 
" clip-path="url(#pf51ef66e57)" style="fill: none; stroke: #000000; stroke-width: 1.2"/>
    <path d="M 780.099174 191.773318 
L 649.561983 240.226682 
" clip-path="url(#pf51ef66e57)" style="fill: none; stroke: #000000; stroke-width: 1.2"/>
    <path d="M 780.099174 143.319953 
L 649.561983 240.226682 
" clip-path="url(#pf51ef66e57)" style="fill: none; stroke: #000000; stroke-width: 1.2"/>
    <path d="M 83.900826 46.413223 
L 214.438017 240.226682 
" clip-path="url(#pf51ef66e57)" style="fill: none; stroke: #000000; stroke-width: 1.2"/>
    <path d="M 780.099174 94.866588 
L 649.561983 240.226682 
" clip-path="url(#pf51ef66e57)" style="fill: none; stroke: #000000; stroke-width: 1.2"/>
   </g>
   <g id="text_1">
    <g id="patch_2">
     <path d="M 314.109361 246.497932 
L 332.328111 246.497932 
Q 334.728111 246.497932 334.728111 244.097932 
L 334.728111 236.355432 
Q 334.728111 233.955432 332.328111 233.955432 
L 314.109361 233.955432 
Q 311.709361 233.955432 311.709361 236.355432 
L 311.709361 244.097932 
Q 311.709361 246.497932 314.109361 246.497932 
z
" clip-path="url(#pf51ef66e57)" style="fill: #ffffff; stroke: #ffffff; stroke-linejoin: miter"/>
    </g>
    <g clip-path="url(#pf51ef66e57)">
     <!-- eth0 -->
     <g transform="translate(314.109361 242.434182) scale(0.08 -0.08)">
      <defs>
       <path id="DejaVuSans-65" d="M 3597 1894 
L 3597 1613 
L 953 1613 
Q 991 1019 1311 708 
Q 1631 397 2203 397 
Q 2534 397 2845 478 
Q 3156 559 3463 722 
L 3463 178 
Q 3153 47 2828 -22 
Q 2503 -91 2169 -91 
Q 1331 -91 842 396 
Q 353 884 353 1716 
Q 353 2575 817 3079 
Q 1281 3584 2069 3584 
Q 2775 3584 3186 3129 
Q 3597 2675 3597 1894 
z
M 3022 2063 
Q 3016 2534 2758 2815 
Q 2500 3097 2075 3097 
Q 1594 3097 1305 2825 
Q 1016 2553 972 2059 
L 3022 2063 
z
" transform="scale(0.015625)"/>
       <path id="DejaVuSans-74" d="M 1172 4494 
L 1172 3500 
L 2356 3500 
L 2356 3053 
L 1172 3053 
L 1172 1153 
Q 1172 725 1289 603 
Q 1406 481 1766 481 
L 2356 481 
L 2356 0 
L 1766 0 
Q 1100 0 847 248 
Q 594 497 594 1153 
L 594 3053 
L 172 3053 
L 172 3500 
L 594 3500 
L 594 4494 
L 1172 4494 
z
" transform="scale(0.015625)"/>
       <path id="DejaVuSans-68" d="M 3513 2113 
L 3513 0 
L 2938 0 
L 2938 2094 
Q 2938 2591 2744 2837 
Q 2550 3084 2163 3084 
Q 1697 3084 1428 2787 
Q 1159 2491 1159 1978 
L 1159 0 
L 581 0 
L 581 4863 
L 1159 4863 
L 1159 2956 
Q 1366 3272 1645 3428 
Q 1925 3584 2291 3584 
Q 2894 3584 3203 3211 
Q 3513 2838 3513 2113 
z
" transform="scale(0.015625)"/>
       <path id="DejaVuSans-30" d="M 2034 4250 
Q 1547 4250 1301 3770 
Q 1056 3291 1056 2328 
Q 1056 1369 1301 889 
Q 1547 409 2034 409 
Q 2525 409 2770 889 
Q 3016 1369 3016 2328 
Q 3016 3291 2770 3770 
Q 2525 4250 2034 4250 
z
M 2034 4750 
Q 2819 4750 3233 4129 
Q 3647 3509 3647 2328 
Q 3647 1150 3233 529 
Q 2819 -91 2034 -91 
Q 1250 -91 836 529 
Q 422 1150 422 2328 
Q 422 3509 836 4129 
Q 1250 4750 2034 4750 
z
" transform="scale(0.015625)"/>
      </defs>
      <use xlink:href="#DejaVuSans-65"/>
      <use xlink:href="#DejaVuSans-74" transform="translate(61.523438 0)"/>
      <use xlink:href="#DejaVuSans-68" transform="translate(100.732422 0)"/>
      <use xlink:href="#DejaVuSans-30" transform="translate(164.111328 0)"/>
     </g>
    </g>
   </g>
   <g id="text_2">
    <g id="patch_3">
     <path d="M 531.671889 246.497932 
L 549.890639 246.497932 
Q 552.290639 246.497932 552.290639 244.097932 
L 552.290639 236.355432 
Q 552.290639 233.955432 549.890639 233.955432 
L 531.671889 233.955432 
Q 529.271889 233.955432 529.271889 236.355432 
L 529.271889 244.097932 
Q 529.271889 246.497932 531.671889 246.497932 
z
" clip-path="url(#pf51ef66e57)" style="fill: #ffffff; stroke: #ffffff; stroke-linejoin: miter"/>
    </g>
    <g clip-path="url(#pf51ef66e57)">
     <!-- eth1 -->
     <g transform="translate(531.671889 242.434182) scale(0.08 -0.08)">
      <defs>
       <path id="DejaVuSans-31" d="M 794 531 
L 1825 531 
L 1825 4091 
L 703 3866 
L 703 4441 
L 1819 4666 
L 2450 4666 
L 2450 531 
L 3481 531 
L 3481 0 
L 794 0 
L 794 531 
z
" transform="scale(0.015625)"/>
      </defs>
      <use xlink:href="#DejaVuSans-65"/>
      <use xlink:href="#DejaVuSans-74" transform="translate(61.523438 0)"/>
      <use xlink:href="#DejaVuSans-68" transform="translate(100.732422 0)"/>
      <use xlink:href="#DejaVuSans-31" transform="translate(164.111328 0)"/>
     </g>
    </g>
   </g>
   <g id="text_3">
    <g id="patch_4">
     <path d="M 147.749631 323.87369 
L 159.922544 310.318505 
Q 161.526111 308.532848 159.740454 306.929281 
L 153.979849 301.756106 
Q 152.194192 300.152539 150.590624 301.938196 
L 138.417711 315.493381 
Q 136.814144 317.279038 138.599802 318.882606 
L 144.360406 324.05578 
Q 146.146064 325.659348 147.749631 323.87369 
z
" clip-path="url(#pf51ef66e57)" style="fill: #ffffff; stroke: #ffffff; stroke-linejoin: miter"/>
    </g>
    <g clip-path="url(#pf51ef66e57)">
     <!-- eth0 -->
     <g transform="translate(144.726104 321.158484) rotate(-48.075326) scale(0.08 -0.08)">
      <use xlink:href="#DejaVuSans-65"/>
      <use xlink:href="#DejaVuSans-74" transform="translate(61.523438 0)"/>
      <use xlink:href="#DejaVuSans-68" transform="translate(100.732422 0)"/>
      <use xlink:href="#DejaVuSans-30" transform="translate(164.111328 0)"/>
     </g>
    </g>
   </g>
   <g id="text_4">
    <g id="patch_5">
     <path d="M 145.593619 299.145053 
L 160.222028 288.28538 
Q 162.149064 286.854809 160.718492 284.927773 
L 156.103411 278.711075 
Q 154.67284 276.78404 152.745804 278.214611 
L 138.117395 289.074284 
Q 136.190359 290.504855 137.620931 292.431891 
L 142.236012 298.648588 
Q 143.666583 300.575624 145.593619 299.145053 
z
" clip-path="url(#pf51ef66e57)" style="fill: #ffffff; stroke: #ffffff; stroke-linejoin: miter"/>
    </g>
    <g clip-path="url(#pf51ef66e57)">
     <!-- eth0 -->
     <g transform="translate(143.171334 295.88214) rotate(-36.589038) scale(0.08 -0.08)">
      <use xlink:href="#DejaVuSans-65"/>
      <use xlink:href="#DejaVuSans-74" transform="translate(61.523438 0)"/>
      <use xlink:href="#DejaVuSans-68" transform="translate(100.732422 0)"/>
      <use xlink:href="#DejaVuSans-30" transform="translate(164.111328 0)"/>
     </g>
    </g>
   </g>
   <g id="text_5">
    <g id="patch_6">
     <path d="M 142.814107 273.501692 
L 159.894185 267.161834 
Q 162.144185 266.326669 161.30902 264.076669 
L 158.614743 256.818075 
Q 157.779579 254.568076 155.529579 255.40324 
L 138.449501 261.743098 
Q 136.199501 262.578263 137.034666 264.828263 
L 139.728942 272.086857 
Q 140.564107 274.336857 142.814107 273.501692 
z
" clip-path="url(#pf51ef66e57)" style="fill: #ffffff; stroke: #ffffff; stroke-linejoin: miter"/>
    </g>
    <g clip-path="url(#pf51ef66e57)">
     <!-- eth0 -->
     <g transform="translate(141.399982 269.691926) rotate(-20.364139) scale(0.08 -0.08)">
      <use xlink:href="#DejaVuSans-65"/>
      <use xlink:href="#DejaVuSans-74" transform="translate(61.523438 0)"/>
      <use xlink:href="#DejaVuSans-68" transform="translate(100.732422 0)"/>
      <use xlink:href="#DejaVuSans-30" transform="translate(164.111328 0)"/>
     </g>
    </g>
   </g>
   <g id="text_6">
    <g id="patch_7">
     <path d="M 138.449501 218.710267 
L 155.529579 225.050124 
Q 157.779579 225.885289 158.614743 223.635289 
L 161.30902 216.376696 
Q 162.144185 214.126696 159.894185 213.291531 
L 142.814107 206.951673 
Q 140.564107 206.116508 139.728942 208.366508 
L 137.034666 215.625102 
Q 136.199501 217.875102 138.449501 218.710267 
z
" clip-path="url(#pf51ef66e57)" style="fill: #ffffff; stroke: #ffffff; stroke-linejoin: miter"/>
    </g>
    <g clip-path="url(#pf51ef66e57)">
     <!-- eth0 -->
     <g transform="translate(139.863626 214.900501) rotate(-339.635861) scale(0.08 -0.08)">
      <use xlink:href="#DejaVuSans-65"/>
      <use xlink:href="#DejaVuSans-74" transform="translate(61.523438 0)"/>
      <use xlink:href="#DejaVuSans-68" transform="translate(100.732422 0)"/>
      <use xlink:href="#DejaVuSans-30" transform="translate(164.111328 0)"/>
     </g>
    </g>
   </g>
   <g id="text_7">
    <g id="patch_8">
     <path d="M 138.117395 191.379081 
L 152.745804 202.238754 
Q 154.67284 203.669325 156.103411 201.742289 
L 160.718492 195.525592 
Q 162.149064 193.598556 160.222028 192.167985 
L 145.593619 181.308312 
Q 143.666583 179.877741 142.236012 181.804776 
L 137.620931 188.021474 
Q 136.190359 189.948509 138.117395 191.379081 
z
" clip-path="url(#pf51ef66e57)" style="fill: #ffffff; stroke: #ffffff; stroke-linejoin: miter"/>
    </g>
    <g clip-path="url(#pf51ef66e57)">
     <!-- eth0 -->
     <g transform="translate(140.53968 188.116168) rotate(-323.410962) scale(0.08 -0.08)">
      <use xlink:href="#DejaVuSans-65"/>
      <use xlink:href="#DejaVuSans-74" transform="translate(61.523438 0)"/>
      <use xlink:href="#DejaVuSans-68" transform="translate(100.732422 0)"/>
      <use xlink:href="#DejaVuSans-30" transform="translate(164.111328 0)"/>
     </g>
    </g>
   </g>
   <g id="text_8">
    <g id="patch_9">
     <path d="M 138.417711 164.959984 
L 150.590624 178.515169 
Q 152.194192 180.300826 153.979849 178.697259 
L 159.740454 173.524084 
Q 161.526111 171.920517 159.922544 170.134859 
L 147.749631 156.579674 
Q 146.146064 154.794017 144.360406 156.397584 
L 138.599802 161.570759 
Q 136.814144 163.174326 138.417711 164.959984 
z
" clip-path="url(#pf51ef66e57)" style="fill: #ffffff; stroke: #ffffff; stroke-linejoin: miter"/>
    </g>
    <g clip-path="url(#pf51ef66e57)">
     <!-- eth0 -->
     <g transform="translate(141.441239 162.244777) rotate(-311.924674) scale(0.08 -0.08)">
      <use xlink:href="#DejaVuSans-65"/>
      <use xlink:href="#DejaVuSans-74" transform="translate(61.523438 0)"/>
      <use xlink:href="#DejaVuSans-68" transform="translate(100.732422 0)"/>
      <use xlink:href="#DejaVuSans-30" transform="translate(164.111328 0)"/>
     </g>
    </g>
   </g>
   <g id="text_9">
    <g id="patch_10">
     <path d="M 704.105815 267.161834 
L 721.185893 273.501692 
Q 723.435893 274.336857 724.271058 272.086857 
L 726.965334 264.828263 
Q 727.800499 262.578263 725.550499 261.743098 
L 708.470421 255.40324 
Q 706.220421 254.568076 705.385257 256.818075 
L 702.69098 264.076669 
Q 701.855815 266.326669 704.105815 267.161834 
z
" clip-path="url(#pf51ef66e57)" style="fill: #ffffff; stroke: #ffffff; stroke-linejoin: miter"/>
    </g>
    <g clip-path="url(#pf51ef66e57)">
     <!-- eth0 -->
     <g transform="translate(705.519941 263.352068) rotate(-339.635861) scale(0.08 -0.08)">
      <use xlink:href="#DejaVuSans-65"/>
      <use xlink:href="#DejaVuSans-74" transform="translate(61.523438 0)"/>
      <use xlink:href="#DejaVuSans-68" transform="translate(100.732422 0)"/>
      <use xlink:href="#DejaVuSans-30" transform="translate(164.111328 0)"/>
     </g>
    </g>
   </g>
   <g id="text_10">
    <g id="patch_11">
     <path d="M 708.470421 225.050124 
L 725.550499 218.710267 
Q 727.800499 217.875102 726.965334 215.625102 
L 724.271058 208.366508 
Q 723.435893 206.116508 721.185893 206.951673 
L 704.105815 213.291531 
Q 701.855815 214.126696 702.69098 216.376696 
L 705.385257 223.635289 
Q 706.220421 225.885289 708.470421 225.050124 
z
" clip-path="url(#pf51ef66e57)" style="fill: #ffffff; stroke: #ffffff; stroke-linejoin: miter"/>
    </g>
    <g clip-path="url(#pf51ef66e57)">
     <!-- eth0 -->
     <g transform="translate(707.056296 221.240359) rotate(-20.364139) scale(0.08 -0.08)">
      <use xlink:href="#DejaVuSans-65"/>
      <use xlink:href="#DejaVuSans-74" transform="translate(61.523438 0)"/>
      <use xlink:href="#DejaVuSans-68" transform="translate(100.732422 0)"/>
      <use xlink:href="#DejaVuSans-30" transform="translate(164.111328 0)"/>
     </g>
    </g>
   </g>
   <g id="text_11">
    <g id="patch_12">
     <path d="M 711.254196 202.238754 
L 725.882605 191.379081 
Q 727.809641 189.948509 726.379069 188.021474 
L 721.763988 181.804776 
Q 720.333417 179.877741 718.406381 181.308312 
L 703.777972 192.167985 
Q 701.850936 193.598556 703.281508 195.525592 
L 707.896589 201.742289 
Q 709.32716 203.669325 711.254196 202.238754 
z
" clip-path="url(#pf51ef66e57)" style="fill: #ffffff; stroke: #ffffff; stroke-linejoin: miter"/>
    </g>
    <g clip-path="url(#pf51ef66e57)">
     <!-- eth0 -->
     <g transform="translate(708.831911 198.975841) rotate(-36.589038) scale(0.08 -0.08)">
      <use xlink:href="#DejaVuSans-65"/>
      <use xlink:href="#DejaVuSans-74" transform="translate(61.523438 0)"/>
      <use xlink:href="#DejaVuSans-68" transform="translate(100.732422 0)"/>
      <use xlink:href="#DejaVuSans-30" transform="translate(164.111328 0)"/>
     </g>
    </g>
   </g>
   <g id="text_12">
    <g id="patch_13">
     <path d="M 138.878688 139.267057 
L 149.056212 154.378009 
Q 150.396922 156.368611 152.387524 155.027901 
L 158.80929 150.702715 
Q 160.799892 149.362006 159.459182 147.371403 
L 149.281658 132.260452 
Q 147.940948 130.26985 145.950346 131.61056 
L 139.52858 135.935745 
Q 137.537978 137.276455 138.878688 139.267057 
z
" clip-path="url(#pf51ef66e57)" style="fill: #ffffff; stroke: #ffffff; stroke-linejoin: miter"/>
    </g>
    <g clip-path="url(#pf51ef66e57)">
     <!-- eth0 -->
     <g transform="translate(142.249234 136.996928) rotate(-303.961044) scale(0.08 -0.08)">
      <use xlink:href="#DejaVuSans-65"/>
      <use xlink:href="#DejaVuSans-74" transform="translate(61.523438 0)"/>
      <use xlink:href="#DejaVuSans-68" transform="translate(100.732422 0)"/>
      <use xlink:href="#DejaVuSans-30" transform="translate(164.111328 0)"/>
     </g>
    </g>
   </g>
   <g id="text_13">
    <g id="patch_14">
     <path d="M 713.409376 178.515169 
L 725.582289 164.959984 
Q 727.185856 163.174326 725.400198 161.570759 
L 719.639594 156.397584 
Q 717.853936 154.794017 716.250369 156.579674 
L 704.077456 170.134859 
Q 702.473889 171.920517 704.259546 173.524084 
L 710.020151 178.697259 
Q 711.805808 180.300826 713.409376 178.515169 
z
" clip-path="url(#pf51ef66e57)" style="fill: #ffffff; stroke: #ffffff; stroke-linejoin: miter"/>
    </g>
    <g clip-path="url(#pf51ef66e57)">
     <!-- eth0 -->
     <g transform="translate(710.385849 175.799962) rotate(-48.075326) scale(0.08 -0.08)">
      <use xlink:href="#DejaVuSans-65"/>
      <use xlink:href="#DejaVuSans-74" transform="translate(61.523438 0)"/>
      <use xlink:href="#DejaVuSans-68" transform="translate(100.732422 0)"/>
      <use xlink:href="#DejaVuSans-30" transform="translate(164.111328 0)"/>
     </g>
    </g>
   </g>
   <g id="PathCollection_1">
    <defs>
     <path id="mcbea124235" d="M -23.452079 23.452079 
L 23.452079 23.452079 
L 23.452079 -23.452079 
L -23.452079 -23.452079 
z
" style="stroke: #d3d3d3"/>
    </defs>
    <g clip-path="url(#pf51ef66e57)">
     <use xlink:href="#mcbea124235" x="83.900826" y="385.586777" style="fill: #d3d3d3; stroke: #d3d3d3"/>
     <use xlink:href="#mcbea124235" x="83.900826" y="337.133412" style="fill: #d3d3d3; stroke: #d3d3d3"/>
     <use xlink:href="#mcbea124235" x="83.900826" y="288.680047" style="fill: #d3d3d3; stroke: #d3d3d3"/>
     <use xlink:href="#mcbea124235" x="83.900826" y="191.773318" style="fill: #d3d3d3; stroke: #d3d3d3"/>
     <use xlink:href="#mcbea124235" x="83.900826" y="143.319953" style="fill: #d3d3d3; stroke: #d3d3d3"/>
     <use xlink:href="#mcbea124235" x="83.900826" y="94.866588" style="fill: #d3d3d3; stroke: #d3d3d3"/>
     <use xlink:href="#mcbea124235" x="780.099174" y="288.680047" style="fill: #d3d3d3; stroke: #d3d3d3"/>
     <use xlink:href="#mcbea124235" x="780.099174" y="191.773318" style="fill: #d3d3d3; stroke: #d3d3d3"/>
     <use xlink:href="#mcbea124235" x="780.099174" y="143.319953" style="fill: #d3d3d3; stroke: #d3d3d3"/>
    </g>
   </g>
   <g id="PathCollection_2">
    <defs>
     <path id="ma5502994d0" d="M -24.494897 24.494897 
L 24.494897 24.494897 
L 24.494897 -24.494897 
L -24.494897 -24.494897 
z
" style="stroke: #d3d3d3"/>
    </defs>
    <g clip-path="url(#pf51ef66e57)">
     <use xlink:href="#ma5502994d0" x="432" y="240.226682" style="fill: #d3d3d3; stroke: #d3d3d3"/>
    </g>
   </g>
   <g id="PathCollection_3">
    <g clip-path="url(#pf51ef66e57)">
     <use xlink:href="#mcbea124235" x="83.900826" y="46.413223" style="fill: #d3d3d3; stroke: #d3d3d3"/>
     <use xlink:href="#mcbea124235" x="780.099174" y="94.866588" style="fill: #d3d3d3; stroke: #d3d3d3"/>
    </g>
   </g>
   <g id="PathCollection_4">
    <defs>
     <path id="ma73e58725e" d="M 0 22.36068 
C 5.930122 22.36068 11.618159 20.004617 15.811388 15.811388 
C 20.004617 11.618159 22.36068 5.930122 22.36068 0 
C 22.36068 -5.930122 20.004617 -11.618159 15.811388 -15.811388 
C 11.618159 -20.004617 5.930122 -22.36068 0 -22.36068 
C -5.930122 -22.36068 -11.618159 -20.004617 -15.811388 -15.811388 
C -20.004617 -11.618159 -22.36068 -5.930122 -22.36068 0 
C -22.36068 5.930122 -20.004617 11.618159 -15.811388 15.811388 
C -11.618159 20.004617 -5.930122 22.36068 0 22.36068 
z
" style="stroke: #b7e0f0"/>
    </defs>
    <g clip-path="url(#pf51ef66e57)">
     <use xlink:href="#ma73e58725e" x="214.438017" y="240.226682" style="fill: #b7e0f0; stroke: #b7e0f0"/>
     <use xlink:href="#ma73e58725e" x="649.561983" y="240.226682" style="fill: #b7e0f0; stroke: #b7e0f0"/>
    </g>
   </g>
   <g id="text_14">
    <g clip-path="url(#pf51ef66e57)">
     <!-- r1 (router) -->
     <g transform="translate(408.608438 242.71012) scale(0.09 -0.09)">
      <defs>
       <path id="DejaVuSans-72" d="M 2631 2963 
Q 2534 3019 2420 3045 
Q 2306 3072 2169 3072 
Q 1681 3072 1420 2755 
Q 1159 2438 1159 1844 
L 1159 0 
L 581 0 
L 581 3500 
L 1159 3500 
L 1159 2956 
Q 1341 3275 1631 3429 
Q 1922 3584 2338 3584 
Q 2397 3584 2469 3576 
Q 2541 3569 2628 3553 
L 2631 2963 
z
" transform="scale(0.015625)"/>
       <path id="DejaVuSans-20" transform="scale(0.015625)"/>
       <path id="DejaVuSans-28" d="M 1984 4856 
Q 1566 4138 1362 3434 
Q 1159 2731 1159 2009 
Q 1159 1288 1364 580 
Q 1569 -128 1984 -844 
L 1484 -844 
Q 1016 -109 783 600 
Q 550 1309 550 2009 
Q 550 2706 781 3412 
Q 1013 4119 1484 4856 
L 1984 4856 
z
" transform="scale(0.015625)"/>
       <path id="DejaVuSans-6f" d="M 1959 3097 
Q 1497 3097 1228 2736 
Q 959 2375 959 1747 
Q 959 1119 1226 758 
Q 1494 397 1959 397 
Q 2419 397 2687 759 
Q 2956 1122 2956 1747 
Q 2956 2369 2687 2733 
Q 2419 3097 1959 3097 
z
M 1959 3584 
Q 2709 3584 3137 3096 
Q 3566 2609 3566 1747 
Q 3566 888 3137 398 
Q 2709 -91 1959 -91 
Q 1206 -91 779 398 
Q 353 888 353 1747 
Q 353 2609 779 3096 
Q 1206 3584 1959 3584 
z
" transform="scale(0.015625)"/>
       <path id="DejaVuSans-75" d="M 544 1381 
L 544 3500 
L 1119 3500 
L 1119 1403 
Q 1119 906 1312 657 
Q 1506 409 1894 409 
Q 2359 409 2629 706 
Q 2900 1003 2900 1516 
L 2900 3500 
L 3475 3500 
L 3475 0 
L 2900 0 
L 2900 538 
Q 2691 219 2414 64 
Q 2138 -91 1772 -91 
Q 1169 -91 856 284 
Q 544 659 544 1381 
z
M 1991 3584 
L 1991 3584 
z
" transform="scale(0.015625)"/>
       <path id="DejaVuSans-29" d="M 513 4856 
L 1013 4856 
Q 1481 4119 1714 3412 
Q 1947 2706 1947 2009 
Q 1947 1309 1714 600 
Q 1481 -109 1013 -844 
L 513 -844 
Q 928 -128 1133 580 
Q 1338 1288 1338 2009 
Q 1338 2731 1133 3434 
Q 928 4138 513 4856 
z
" transform="scale(0.015625)"/>
      </defs>
      <use xlink:href="#DejaVuSans-72"/>
      <use xlink:href="#DejaVuSans-31" transform="translate(41.113281 0)"/>
      <use xlink:href="#DejaVuSans-20" transform="translate(104.736328 0)"/>
      <use xlink:href="#DejaVuSans-28" transform="translate(136.523438 0)"/>
      <use xlink:href="#DejaVuSans-72" transform="translate(175.537109 0)"/>
      <use xlink:href="#DejaVuSans-6f" transform="translate(214.400391 0)"/>
      <use xlink:href="#DejaVuSans-75" transform="translate(275.582031 0)"/>
      <use xlink:href="#DejaVuSans-74" transform="translate(338.960938 0)"/>
      <use xlink:href="#DejaVuSans-65" transform="translate(378.169922 0)"/>
      <use xlink:href="#DejaVuSans-72" transform="translate(439.693359 0)"/>
      <use xlink:href="#DejaVuSans-29" transform="translate(480.806641 0)"/>
     </g>
    </g>
   </g>
   <g id="text_15">
    <g clip-path="url(#pf51ef66e57)">
     <!-- dns1 -->
     <g transform="translate(72.984811 388.070214) scale(0.09 -0.09)">
      <defs>
       <path id="DejaVuSans-64" d="M 2906 2969 
L 2906 4863 
L 3481 4863 
L 3481 0 
L 2906 0 
L 2906 525 
Q 2725 213 2448 61 
Q 2172 -91 1784 -91 
Q 1150 -91 751 415 
Q 353 922 353 1747 
Q 353 2572 751 3078 
Q 1150 3584 1784 3584 
Q 2172 3584 2448 3432 
Q 2725 3281 2906 2969 
z
M 947 1747 
Q 947 1113 1208 752 
Q 1469 391 1925 391 
Q 2381 391 2643 752 
Q 2906 1113 2906 1747 
Q 2906 2381 2643 2742 
Q 2381 3103 1925 3103 
Q 1469 3103 1208 2742 
Q 947 2381 947 1747 
z
" transform="scale(0.015625)"/>
       <path id="DejaVuSans-6e" d="M 3513 2113 
L 3513 0 
L 2938 0 
L 2938 2094 
Q 2938 2591 2744 2837 
Q 2550 3084 2163 3084 
Q 1697 3084 1428 2787 
Q 1159 2491 1159 1978 
L 1159 0 
L 581 0 
L 581 3500 
L 1159 3500 
L 1159 2956 
Q 1366 3272 1645 3428 
Q 1925 3584 2291 3584 
Q 2894 3584 3203 3211 
Q 3513 2838 3513 2113 
z
" transform="scale(0.015625)"/>
       <path id="DejaVuSans-73" d="M 2834 3397 
L 2834 2853 
Q 2591 2978 2328 3040 
Q 2066 3103 1784 3103 
Q 1356 3103 1142 2972 
Q 928 2841 928 2578 
Q 928 2378 1081 2264 
Q 1234 2150 1697 2047 
L 1894 2003 
Q 2506 1872 2764 1633 
Q 3022 1394 3022 966 
Q 3022 478 2636 193 
Q 2250 -91 1575 -91 
Q 1294 -91 989 -36 
Q 684 19 347 128 
L 347 722 
Q 666 556 975 473 
Q 1284 391 1588 391 
Q 1994 391 2212 530 
Q 2431 669 2431 922 
Q 2431 1156 2273 1281 
Q 2116 1406 1581 1522 
L 1381 1569 
Q 847 1681 609 1914 
Q 372 2147 372 2553 
Q 372 3047 722 3315 
Q 1072 3584 1716 3584 
Q 2034 3584 2315 3537 
Q 2597 3491 2834 3397 
z
" transform="scale(0.015625)"/>
      </defs>
      <use xlink:href="#DejaVuSans-64"/>
      <use xlink:href="#DejaVuSans-6e" transform="translate(63.476562 0)"/>
      <use xlink:href="#DejaVuSans-73" transform="translate(126.855469 0)"/>
      <use xlink:href="#DejaVuSans-31" transform="translate(178.955078 0)"/>
     </g>
    </g>
   </g>
   <g id="text_16">
    <g clip-path="url(#pf51ef66e57)">
     <!-- ftp1 -->
     <g transform="translate(74.911373 339.61685) scale(0.09 -0.09)">
      <defs>
       <path id="DejaVuSans-66" d="M 2375 4863 
L 2375 4384 
L 1825 4384 
Q 1516 4384 1395 4259 
Q 1275 4134 1275 3809 
L 1275 3500 
L 2222 3500 
L 2222 3053 
L 1275 3053 
L 1275 0 
L 697 0 
L 697 3053 
L 147 3053 
L 147 3500 
L 697 3500 
L 697 3744 
Q 697 4328 969 4595 
Q 1241 4863 1831 4863 
L 2375 4863 
z
" transform="scale(0.015625)"/>
       <path id="DejaVuSans-70" d="M 1159 525 
L 1159 -1331 
L 581 -1331 
L 581 3500 
L 1159 3500 
L 1159 2969 
Q 1341 3281 1617 3432 
Q 1894 3584 2278 3584 
Q 2916 3584 3314 3078 
Q 3713 2572 3713 1747 
Q 3713 922 3314 415 
Q 2916 -91 2278 -91 
Q 1894 -91 1617 61 
Q 1341 213 1159 525 
z
M 3116 1747 
Q 3116 2381 2855 2742 
Q 2594 3103 2138 3103 
Q 1681 3103 1420 2742 
Q 1159 2381 1159 1747 
Q 1159 1113 1420 752 
Q 1681 391 2138 391 
Q 2594 391 2855 752 
Q 3116 1113 3116 1747 
z
" transform="scale(0.015625)"/>
      </defs>
      <use xlink:href="#DejaVuSans-66"/>
      <use xlink:href="#DejaVuSans-74" transform="translate(33.455078 0)"/>
      <use xlink:href="#DejaVuSans-70" transform="translate(72.664062 0)"/>
      <use xlink:href="#DejaVuSans-31" transform="translate(136.140625 0)"/>
     </g>
    </g>
   </g>
   <g id="text_17">
    <g clip-path="url(#pf51ef66e57)">
     <!-- web1 -->
     <g transform="translate(71.731842 291.163485) scale(0.09 -0.09)">
      <defs>
       <path id="DejaVuSans-77" d="M 269 3500 
L 844 3500 
L 1563 769 
L 2278 3500 
L 2956 3500 
L 3675 769 
L 4391 3500 
L 4966 3500 
L 4050 0 
L 3372 0 
L 2619 2869 
L 1863 0 
L 1184 0 
L 269 3500 
z
" transform="scale(0.015625)"/>
       <path id="DejaVuSans-62" d="M 3116 1747 
Q 3116 2381 2855 2742 
Q 2594 3103 2138 3103 
Q 1681 3103 1420 2742 
Q 1159 2381 1159 1747 
Q 1159 1113 1420 752 
Q 1681 391 2138 391 
Q 2594 391 2855 752 
Q 3116 1113 3116 1747 
z
M 1159 2969 
Q 1341 3281 1617 3432 
Q 1894 3584 2278 3584 
Q 2916 3584 3314 3078 
Q 3713 2572 3713 1747 
Q 3713 922 3314 415 
Q 2916 -91 2278 -91 
Q 1894 -91 1617 61 
Q 1341 213 1159 525 
L 1159 0 
L 581 0 
L 581 4863 
L 1159 4863 
L 1159 2969 
z
" transform="scale(0.015625)"/>
      </defs>
      <use xlink:href="#DejaVuSans-77"/>
      <use xlink:href="#DejaVuSans-65" transform="translate(81.787109 0)"/>
      <use xlink:href="#DejaVuSans-62" transform="translate(143.310547 0)"/>
      <use xlink:href="#DejaVuSans-31" transform="translate(206.787109 0)"/>
     </g>
    </g>
   </g>
   <g id="text_18">
    <g clip-path="url(#pf51ef66e57)">
     <!-- nspc1 -->
     <g transform="translate(70.510514 194.256755) scale(0.09 -0.09)">
      <defs>
       <path id="DejaVuSans-63" d="M 3122 3366 
L 3122 2828 
Q 2878 2963 2633 3030 
Q 2388 3097 2138 3097 
Q 1578 3097 1268 2742 
Q 959 2388 959 1747 
Q 959 1106 1268 751 
Q 1578 397 2138 397 
Q 2388 397 2633 464 
Q 2878 531 3122 666 
L 3122 134 
Q 2881 22 2623 -34 
Q 2366 -91 2075 -91 
Q 1284 -91 818 406 
Q 353 903 353 1747 
Q 353 2603 823 3093 
Q 1294 3584 2113 3584 
Q 2378 3584 2631 3529 
Q 2884 3475 3122 3366 
z
" transform="scale(0.015625)"/>
      </defs>
      <use xlink:href="#DejaVuSans-6e"/>
      <use xlink:href="#DejaVuSans-73" transform="translate(63.378906 0)"/>
      <use xlink:href="#DejaVuSans-70" transform="translate(115.478516 0)"/>
      <use xlink:href="#DejaVuSans-63" transform="translate(178.955078 0)"/>
      <use xlink:href="#DejaVuSans-31" transform="translate(233.935547 0)"/>
     </g>
    </g>
   </g>
   <g id="text_19">
    <g clip-path="url(#pf51ef66e57)">
     <!-- pc1 -->
     <g transform="translate(75.706608 145.80339) scale(0.09 -0.09)">
      <use xlink:href="#DejaVuSans-70"/>
      <use xlink:href="#DejaVuSans-63" transform="translate(63.476562 0)"/>
      <use xlink:href="#DejaVuSans-31" transform="translate(118.457031 0)"/>
     </g>
    </g>
   </g>
   <g id="text_20">
    <g clip-path="url(#pf51ef66e57)">
     <!-- pc2 -->
     <g transform="translate(75.706608 97.350025) scale(0.09 -0.09)">
      <defs>
       <path id="DejaVuSans-32" d="M 1228 531 
L 3431 531 
L 3431 0 
L 469 0 
L 469 531 
Q 828 903 1448 1529 
Q 2069 2156 2228 2338 
Q 2531 2678 2651 2914 
Q 2772 3150 2772 3378 
Q 2772 3750 2511 3984 
Q 2250 4219 1831 4219 
Q 1534 4219 1204 4116 
Q 875 4013 500 3803 
L 500 4441 
Q 881 4594 1212 4672 
Q 1544 4750 1819 4750 
Q 2544 4750 2975 4387 
Q 3406 4025 3406 3419 
Q 3406 3131 3298 2873 
Q 3191 2616 2906 2266 
Q 2828 2175 2409 1742 
Q 1991 1309 1228 531 
z
" transform="scale(0.015625)"/>
      </defs>
      <use xlink:href="#DejaVuSans-70"/>
      <use xlink:href="#DejaVuSans-63" transform="translate(63.476562 0)"/>
      <use xlink:href="#DejaVuSans-32" transform="translate(118.457031 0)"/>
     </g>
    </g>
   </g>
   <g id="text_21">
    <g clip-path="url(#pf51ef66e57)">
     <!-- web2 -->
     <g transform="translate(767.930189 291.163485) scale(0.09 -0.09)">
      <use xlink:href="#DejaVuSans-77"/>
      <use xlink:href="#DejaVuSans-65" transform="translate(81.787109 0)"/>
      <use xlink:href="#DejaVuSans-62" transform="translate(143.310547 0)"/>
      <use xlink:href="#DejaVuSans-32" transform="translate(206.787109 0)"/>
     </g>
    </g>
   </g>
   <g id="text_22">
    <g clip-path="url(#pf51ef66e57)">
     <!-- nspc2 -->
     <g transform="translate(766.708861 194.256755) scale(0.09 -0.09)">
      <use xlink:href="#DejaVuSans-6e"/>
      <use xlink:href="#DejaVuSans-73" transform="translate(63.378906 0)"/>
      <use xlink:href="#DejaVuSans-70" transform="translate(115.478516 0)"/>
      <use xlink:href="#DejaVuSans-63" transform="translate(178.955078 0)"/>
      <use xlink:href="#DejaVuSans-32" transform="translate(233.935547 0)"/>
     </g>
    </g>
   </g>
   <g id="text_23">
    <g clip-path="url(#pf51ef66e57)">
     <!-- pc3 -->
     <g transform="translate(771.904955 145.80339) scale(0.09 -0.09)">
      <defs>
       <path id="DejaVuSans-33" d="M 2597 2516 
Q 3050 2419 3304 2112 
Q 3559 1806 3559 1356 
Q 3559 666 3084 287 
Q 2609 -91 1734 -91 
Q 1441 -91 1130 -33 
Q 819 25 488 141 
L 488 750 
Q 750 597 1062 519 
Q 1375 441 1716 441 
Q 2309 441 2620 675 
Q 2931 909 2931 1356 
Q 2931 1769 2642 2001 
Q 2353 2234 1838 2234 
L 1294 2234 
L 1294 2753 
L 1863 2753 
Q 2328 2753 2575 2939 
Q 2822 3125 2822 3475 
Q 2822 3834 2567 4026 
Q 2313 4219 1838 4219 
Q 1578 4219 1281 4162 
Q 984 4106 628 3988 
L 628 4550 
Q 988 4650 1302 4700 
Q 1616 4750 1894 4750 
Q 2613 4750 3031 4423 
Q 3450 4097 3450 3541 
Q 3450 3153 3228 2886 
Q 3006 2619 2597 2516 
z
" transform="scale(0.015625)"/>
      </defs>
      <use xlink:href="#DejaVuSans-70"/>
      <use xlink:href="#DejaVuSans-63" transform="translate(63.476562 0)"/>
      <use xlink:href="#DejaVuSans-33" transform="translate(118.457031 0)"/>
     </g>
    </g>
   </g>
   <g id="text_24">
    <g clip-path="url(#pf51ef66e57)">
     <!-- wiresharka -->
     <g transform="translate(59.364576 48.896661) scale(0.09 -0.09)">
      <defs>
       <path id="DejaVuSans-69" d="M 603 3500 
L 1178 3500 
L 1178 0 
L 603 0 
L 603 3500 
z
M 603 4863 
L 1178 4863 
L 1178 4134 
L 603 4134 
L 603 4863 
z
" transform="scale(0.015625)"/>
       <path id="DejaVuSans-61" d="M 2194 1759 
Q 1497 1759 1228 1600 
Q 959 1441 959 1056 
Q 959 750 1161 570 
Q 1363 391 1709 391 
Q 2188 391 2477 730 
Q 2766 1069 2766 1631 
L 2766 1759 
L 2194 1759 
z
M 3341 1997 
L 3341 0 
L 2766 0 
L 2766 531 
Q 2569 213 2275 61 
Q 1981 -91 1556 -91 
Q 1019 -91 701 211 
Q 384 513 384 1019 
Q 384 1609 779 1909 
Q 1175 2209 1959 2209 
L 2766 2209 
L 2766 2266 
Q 2766 2663 2505 2880 
Q 2244 3097 1772 3097 
Q 1472 3097 1187 3025 
Q 903 2953 641 2809 
L 641 3341 
Q 956 3463 1253 3523 
Q 1550 3584 1831 3584 
Q 2591 3584 2966 3190 
Q 3341 2797 3341 1997 
z
" transform="scale(0.015625)"/>
       <path id="DejaVuSans-6b" d="M 581 4863 
L 1159 4863 
L 1159 1991 
L 2875 3500 
L 3609 3500 
L 1753 1863 
L 3688 0 
L 2938 0 
L 1159 1709 
L 1159 0 
L 581 0 
L 581 4863 
z
" transform="scale(0.015625)"/>
      </defs>
      <use xlink:href="#DejaVuSans-77"/>
      <use xlink:href="#DejaVuSans-69" transform="translate(81.787109 0)"/>
      <use xlink:href="#DejaVuSans-72" transform="translate(109.570312 0)"/>
      <use xlink:href="#DejaVuSans-65" transform="translate(148.433594 0)"/>
      <use xlink:href="#DejaVuSans-73" transform="translate(209.957031 0)"/>
      <use xlink:href="#DejaVuSans-68" transform="translate(262.056641 0)"/>
      <use xlink:href="#DejaVuSans-61" transform="translate(325.435547 0)"/>
      <use xlink:href="#DejaVuSans-72" transform="translate(386.714844 0)"/>
      <use xlink:href="#DejaVuSans-6b" transform="translate(427.828125 0)"/>
      <use xlink:href="#DejaVuSans-61" transform="translate(483.988281 0)"/>
     </g>
    </g>
   </g>
   <g id="text_25">
    <g clip-path="url(#pf51ef66e57)">
     <!-- wiresharkb -->
     <g transform="translate(755.385033 97.350025) scale(0.09 -0.09)">
      <use xlink:href="#DejaVuSans-77"/>
      <use xlink:href="#DejaVuSans-69" transform="translate(81.787109 0)"/>
      <use xlink:href="#DejaVuSans-72" transform="translate(109.570312 0)"/>
      <use xlink:href="#DejaVuSans-65" transform="translate(148.433594 0)"/>
      <use xlink:href="#DejaVuSans-73" transform="translate(209.957031 0)"/>
      <use xlink:href="#DejaVuSans-68" transform="translate(262.056641 0)"/>
      <use xlink:href="#DejaVuSans-61" transform="translate(325.435547 0)"/>
      <use xlink:href="#DejaVuSans-72" transform="translate(386.714844 0)"/>
      <use xlink:href="#DejaVuSans-6b" transform="translate(427.828125 0)"/>
      <use xlink:href="#DejaVuSans-62" transform="translate(485.738281 0)"/>
     </g>
    </g>
   </g>
   <g id="text_26">
    <g clip-path="url(#pf51ef66e57)">
     <!-- s1 -->
     <g transform="translate(209.230673 237.671104) scale(0.09 -0.09)">
      <use xlink:href="#DejaVuSans-73"/>
      <use xlink:href="#DejaVuSans-31" transform="translate(52.099609 0)"/>
     </g>
    </g>
    <g clip-path="url(#pf51ef66e57)">
     <!-- OVS -->
     <g transform="translate(205.039345 247.749136) scale(0.09 -0.09)">
      <defs>
       <path id="DejaVuSans-4f" d="M 2522 4238 
Q 1834 4238 1429 3725 
Q 1025 3213 1025 2328 
Q 1025 1447 1429 934 
Q 1834 422 2522 422 
Q 3209 422 3611 934 
Q 4013 1447 4013 2328 
Q 4013 3213 3611 3725 
Q 3209 4238 2522 4238 
z
M 2522 4750 
Q 3503 4750 4090 4092 
Q 4678 3434 4678 2328 
Q 4678 1225 4090 567 
Q 3503 -91 2522 -91 
Q 1538 -91 948 565 
Q 359 1222 359 2328 
Q 359 3434 948 4092 
Q 1538 4750 2522 4750 
z
" transform="scale(0.015625)"/>
       <path id="DejaVuSans-56" d="M 1831 0 
L 50 4666 
L 709 4666 
L 2188 738 
L 3669 4666 
L 4325 4666 
L 2547 0 
L 1831 0 
z
" transform="scale(0.015625)"/>
       <path id="DejaVuSans-53" d="M 3425 4513 
L 3425 3897 
Q 3066 4069 2747 4153 
Q 2428 4238 2131 4238 
Q 1616 4238 1336 4038 
Q 1056 3838 1056 3469 
Q 1056 3159 1242 3001 
Q 1428 2844 1947 2747 
L 2328 2669 
Q 3034 2534 3370 2195 
Q 3706 1856 3706 1288 
Q 3706 609 3251 259 
Q 2797 -91 1919 -91 
Q 1588 -91 1214 -16 
Q 841 59 441 206 
L 441 856 
Q 825 641 1194 531 
Q 1563 422 1919 422 
Q 2459 422 2753 634 
Q 3047 847 3047 1241 
Q 3047 1584 2836 1778 
Q 2625 1972 2144 2069 
L 1759 2144 
Q 1053 2284 737 2584 
Q 422 2884 422 3419 
Q 422 4038 858 4394 
Q 1294 4750 2059 4750 
Q 2388 4750 2728 4690 
Q 3069 4631 3425 4513 
z
" transform="scale(0.015625)"/>
      </defs>
      <use xlink:href="#DejaVuSans-4f"/>
      <use xlink:href="#DejaVuSans-56" transform="translate(76.960938 0)"/>
      <use xlink:href="#DejaVuSans-53" transform="translate(145.369141 0)"/>
     </g>
    </g>
   </g>
   <g id="text_27">
    <g clip-path="url(#pf51ef66e57)">
     <!-- s2 -->
     <g transform="translate(644.35464 237.671104) scale(0.09 -0.09)">
      <use xlink:href="#DejaVuSans-73"/>
      <use xlink:href="#DejaVuSans-32" transform="translate(52.099609 0)"/>
     </g>
    </g>
    <g clip-path="url(#pf51ef66e57)">
     <!-- OVS -->
     <g transform="translate(640.163312 247.749136) scale(0.09 -0.09)">
      <use xlink:href="#DejaVuSans-4f"/>
      <use xlink:href="#DejaVuSans-56" transform="translate(76.960938 0)"/>
      <use xlink:href="#DejaVuSans-53" transform="translate(145.369141 0)"/>
     </g>
    </g>
   </g>
  </g>
 </g>
 <defs>
  <clipPath id="pf51ef66e57">
   <rect x="10.8" y="10.8" width="842.4" height="410.4"/>
  </clipPath>
 </defs>
</svg>
